<svg xmlns="http://www.w3.org/2000/svg" width="32" height="32" viewBox="0 0 32 32">
  <path id="Instagram_Glyph_White" d="M11.873,2.615a11.67,11.67,0,0,0-3.881.751,7.83,7.83,0,0,0-2.83,1.85,7.838,7.838,0,0,0-1.84,2.836,11.756,11.756,0,0,0-.736,3.885c-.075,1.7-.092,2.251-.084,6.6s.028,4.89.11,6.6a11.7,11.7,0,0,0,.751,3.881,8.178,8.178,0,0,0,4.689,4.67,11.746,11.746,0,0,0,3.884.736c1.7.075,2.251.092,6.595.084s4.891-.028,6.6-.108a11.706,11.706,0,0,0,3.88-.751,8.177,8.177,0,0,0,4.67-4.689,11.7,11.7,0,0,0,.736-3.883c.075-1.708.092-2.253.084-6.6s-.028-4.889-.109-6.6a11.686,11.686,0,0,0-.751-3.882,7.855,7.855,0,0,0-1.85-2.83A7.808,7.808,0,0,0,28.95,3.325a11.708,11.708,0,0,0-3.884-.736c-1.7-.074-2.251-.092-6.6-.084s-4.889.027-6.6.11m.187,28.924A8.879,8.879,0,0,1,9.088,31,4.982,4.982,0,0,1,7.245,29.8a4.928,4.928,0,0,1-1.2-1.837,8.861,8.861,0,0,1-.556-2.971c-.079-1.686-.1-2.192-.105-6.464s.007-4.777.081-6.464A8.855,8.855,0,0,1,6.009,9.1,4.955,4.955,0,0,1,7.2,7.253a4.939,4.939,0,0,1,1.838-1.2A8.86,8.86,0,0,1,12.009,5.5c1.687-.08,2.193-.1,6.464-.105s4.778.007,6.466.081a8.849,8.849,0,0,1,2.971.544,5.3,5.3,0,0,1,3.043,3.032,8.815,8.815,0,0,1,.556,2.968c.08,1.687.1,2.193.106,6.464s-.007,4.778-.081,6.464a8.89,8.89,0,0,1-.544,2.972,5.3,5.3,0,0,1-3.032,3.042,8.862,8.862,0,0,1-2.968.556c-1.687.079-2.193.1-6.466.105s-4.777-.008-6.464-.081M25.1,9.952a1.92,1.92,0,1,0,1.916-1.923A1.92,1.92,0,0,0,25.1,9.952M10.284,18.519a8.216,8.216,0,1,0,8.2-8.232,8.215,8.215,0,0,0-8.2,8.232m2.882-.006a5.333,5.333,0,1,1,5.344,5.323,5.333,5.333,0,0,1-5.344-5.323" transform="translate(-2.499 -2.503)" fill="#fff"/>
</svg>
