<svg xmlns="http://www.w3.org/2000/svg" width="350" height="41.621" viewBox="0 0 350 41.621">
  <g id="ネクストワンロゴ" transform="translate(-46 -431.6)">
    <path id="パス_40" data-name="パス 40" d="M284.763,551.866h-3.6v5.593H279.9v-5.593h-3.6V550.9h8.463Z" transform="translate(-163.038 -84.472)" fill="#2568a9"/>
    <path id="パス_41" data-name="パス 41" d="M315.892,553.685a2.982,2.982,0,0,1-1.523,2.606,5.863,5.863,0,0,1-3.309.878,6.031,6.031,0,0,1-3.338-.878,2.982,2.982,0,0,1-1.523-2.606,3.083,3.083,0,0,1,1.552-2.606,6.671,6.671,0,0,1,6.618,0A3.08,3.08,0,0,1,315.892,553.685Zm-1.318,0a2.211,2.211,0,0,0-1.113-1.874,4.365,4.365,0,0,0-2.4-.615,4.234,4.234,0,0,0-2.548.7,2.117,2.117,0,0,0-.029,3.572,4.266,4.266,0,0,0,2.577.673,4.329,4.329,0,0,0,2.577-.7A2.07,2.07,0,0,0,314.575,553.685Z" transform="translate(-184.206 -83.977)" fill="#2568a9"/>
    <path id="パス_42" data-name="パス 42" d="M378.166,557.459h-1.259V552.1h-.029l-3.924,4.275-3.865-4.275h-.029v5.359H367.8V550.9h1.552l3.6,3.953,3.631-3.953h1.552v6.559Z" transform="translate(-227.816 -84.472)" fill="#2568a9"/>
    <path id="パス_43" data-name="パス 43" d="M417.175,557.459H415.8L414.921,556h-5.066l-.878,1.464H407.6l3.982-6.559h1.581Zm-2.84-2.43-1.933-3.192-1.933,3.192Z" transform="translate(-255.991 -84.472)" fill="#2568a9"/>
    <path id="パス_44" data-name="パス 44" d="M453.555,557.459h-1.611l-3.6-3.455-2.284,1.464v1.991H444.8V550.9h1.259v3.4l5.271-3.4h1.815l-3.865,2.489Z" transform="translate(-282.326 -84.472)" fill="#2568a9"/>
    <path id="パス_45" data-name="パス 45" d="M486.906,557.459H479V550.9h7.613v.966h-6.354v1.7h4.422v.966h-4.422v1.933h6.647Z" transform="translate(-306.537 -84.472)" fill="#2568a9"/>
    <path id="パス_46" data-name="パス 46" d="M539.517,557.459H538.14L537.262,556H532.2l-.878,1.464H530l3.982-6.559h1.581Zm-2.84-2.43-1.933-3.192-1.933,3.192Z" transform="translate(-342.643 -84.472)" fill="#2568a9"/>
    <path id="パス_47" data-name="パス 47" d="M594.674,550.9a2.829,2.829,0,0,1,1.845.556,1.807,1.807,0,0,1,.673,1.493,1.757,1.757,0,0,1-.7,1.493,3.359,3.359,0,0,1-2.05.527h-4.48v2.489H588.7V550.9Zm-.234,3.075c.966,0,1.435-.351,1.435-1.025,0-.732-.5-1.083-1.523-1.083h-4.392v2.108Z" transform="translate(-384.198 -84.472)" fill="#2568a9"/>
    <path id="パス_48" data-name="パス 48" d="M630.477,557.459H622.6V550.9h7.584v.966H623.83v1.7h4.422v.966H623.83v1.933h6.647Z" transform="translate(-408.196 -84.472)" fill="#2568a9"/>
    <path id="パス_49" data-name="パス 49" d="M664.38,557.459h-1.464l-2.05-2.489h-3.807v2.489H655.8V550.9h5.944a2.86,2.86,0,0,1,1.874.556,1.827,1.827,0,0,1,.673,1.523,1.726,1.726,0,0,1-.556,1.347,2.374,2.374,0,0,1-1.406.586Zm-2.782-3.485c.966,0,1.435-.351,1.435-1.025,0-.732-.527-1.083-1.552-1.083h-4.392v2.108Z" transform="translate(-431.701 -84.472)" fill="#2568a9"/>
    <path id="パス_50" data-name="パス 50" d="M696.008,552.028a8.291,8.291,0,0,0-3.426-.732,5.4,5.4,0,0,0-1.757.234c-.41.146-.615.381-.615.644,0,.293.2.5.644.644a7.019,7.019,0,0,0,1.523.205c1.054.059,1.728.117,2.05.146a5.01,5.01,0,0,1,2.079.615,1.424,1.424,0,0,1,.673,1.259,1.756,1.756,0,0,1-1.054,1.611,6.57,6.57,0,0,1-3.045.556,7.787,7.787,0,0,1-4.48-1.113l.674-.791a8.135,8.135,0,0,0,3.807.937,5.452,5.452,0,0,0,2.05-.322c.469-.205.7-.5.7-.849,0-.41-.293-.7-.908-.82-.322-.059-1.171-.146-2.577-.234a7.649,7.649,0,0,1-2.606-.439,1.316,1.316,0,0,1-.878-1.288,1.608,1.608,0,0,1,1-1.464,6.16,6.16,0,0,1,2.811-.527,7.9,7.9,0,0,1,4.07.966Z" transform="translate(-454.921 -84.048)" fill="#2568a9"/>
    <path id="パス_51" data-name="パス 51" d="M732.292,553.685a2.982,2.982,0,0,1-1.523,2.606,5.863,5.863,0,0,1-3.309.878,6.031,6.031,0,0,1-3.338-.878,2.982,2.982,0,0,1-1.523-2.606,3.083,3.083,0,0,1,1.552-2.606,6.671,6.671,0,0,1,6.618,0A3.016,3.016,0,0,1,732.292,553.685Zm-1.288,0a2.211,2.211,0,0,0-1.113-1.874,4.365,4.365,0,0,0-2.4-.615,4.234,4.234,0,0,0-2.548.7,2.117,2.117,0,0,0-.029,3.572,4.266,4.266,0,0,0,2.577.673,4.329,4.329,0,0,0,2.577-.7A2.07,2.07,0,0,0,731,553.685Z" transform="translate(-478.993 -83.977)" fill="#2568a9"/>
    <path id="パス_52" data-name="パス 52" d="M771.55,557.459H770l-5.739-5.388v5.388H763V550.9h1.552l5.739,5.388V550.9h1.259Z" transform="translate(-507.592 -84.472)" fill="#2568a9"/>
    <path id="パス_53" data-name="パス 53" d="M840.313,551.866h-6.354v1.7h4.422v.966h-4.422v2.928H832.7V550.9h7.584v.966Z" transform="translate(-556.933 -84.472)" fill="#2568a9"/>
    <path id="パス_54" data-name="パス 54" d="M869.592,553.685a2.982,2.982,0,0,1-1.523,2.606,5.864,5.864,0,0,1-3.309.878,6.031,6.031,0,0,1-3.338-.878,2.982,2.982,0,0,1-1.523-2.606,3.083,3.083,0,0,1,1.552-2.606,6.671,6.671,0,0,1,6.618,0A3.016,3.016,0,0,1,869.592,553.685Zm-1.288,0a2.211,2.211,0,0,0-1.113-1.874,4.366,4.366,0,0,0-2.4-.615,4.234,4.234,0,0,0-2.547.7,2.117,2.117,0,0,0-.029,3.572,4.266,4.266,0,0,0,2.577.673,4.329,4.329,0,0,0,2.577-.7A2.07,2.07,0,0,0,868.3,553.685Z" transform="translate(-576.193 -83.977)" fill="#2568a9"/>
    <path id="パス_55" data-name="パス 55" d="M904.408,552.028a8.291,8.291,0,0,0-3.426-.732,5.4,5.4,0,0,0-1.757.234c-.41.146-.615.381-.615.644,0,.293.205.5.644.644a7.018,7.018,0,0,0,1.523.205c1.054.059,1.728.117,2.05.146a5.01,5.01,0,0,1,2.079.615,1.424,1.424,0,0,1,.674,1.259,1.756,1.756,0,0,1-1.054,1.611,6.569,6.569,0,0,1-3.045.556A7.787,7.787,0,0,1,897,556.1l.674-.791a8.135,8.135,0,0,0,3.807.937,5.452,5.452,0,0,0,2.05-.322c.469-.205.7-.5.7-.849,0-.41-.293-.7-.908-.82-.322-.059-1.171-.146-2.577-.234a7.649,7.649,0,0,1-2.606-.439,1.316,1.316,0,0,1-.878-1.288,1.608,1.608,0,0,1,1-1.464,6.159,6.159,0,0,1,2.811-.527,7.9,7.9,0,0,1,4.07.966Z" transform="translate(-602.455 -84.048)" fill="#2568a9"/>
    <path id="パス_56" data-name="パス 56" d="M935.663,551.866h-3.6v5.593H930.8v-5.593h-3.6V550.9h8.463Z" transform="translate(-623.835 -84.472)" fill="#2568a9"/>
    <path id="パス_57" data-name="パス 57" d="M968.577,557.459H960.7V550.9h7.584v.966H961.93v1.7h4.422v.966H961.93v1.933h6.647Z" transform="translate(-647.55 -84.472)" fill="#2568a9"/>
    <path id="パス_58" data-name="パス 58" d="M1002.55,557.459h-1.464l-2.05-2.489H995.23v2.489H994V550.9h5.944a2.861,2.861,0,0,1,1.874.556,1.912,1.912,0,0,1,.673,1.523,1.726,1.726,0,0,1-.556,1.347,2.374,2.374,0,0,1-1.406.586Zm-2.811-3.485c.966,0,1.435-.351,1.435-1.025,0-.732-.527-1.083-1.552-1.083H995.23v2.108Z" transform="translate(-671.125 -84.472)" fill="#2568a9"/>
    <path id="パス_59" data-name="パス 59" d="M1059.65,557.459h-1.259v-2.928h-6.032v2.928H1051.1V550.9h1.259v2.665h6.032V550.9h1.259Z" transform="translate(-711.673 -84.472)" fill="#2568a9"/>
    <path id="パス_60" data-name="パス 60" d="M1097.221,555.351a1.923,1.923,0,0,1-1.142,1.669,6.336,6.336,0,0,1-3.1.673,6.459,6.459,0,0,1-3.133-.673,1.923,1.923,0,0,1-1.142-1.669V550.9h1.259v4.187a1.264,1.264,0,0,0,.761,1.171,6.4,6.4,0,0,0,4.509,0,1.294,1.294,0,0,0,.761-1.171V550.9h1.259v4.451Z" transform="translate(-738.263 -84.472)" fill="#2568a9"/>
    <path id="パス_61" data-name="パス 61" d="M1136.5,557.459h-1.259V552.1h-.029l-3.924,4.275-3.895-4.275h-.029v5.359H1126.1V550.9h1.552l3.6,3.953,3.631-3.953h1.552v6.559Z" transform="translate(-764.711 -84.472)" fill="#2568a9"/>
    <path id="パス_62" data-name="パス 62" d="M1175.575,557.459H1174.2l-.878-1.464h-5.066l-.879,1.464H1166l3.982-6.559h1.581Zm-2.84-2.43-1.933-3.192-1.933,3.192Z" transform="translate(-792.928 -84.472)" fill="#2568a9"/>
    <path id="パス_63" data-name="パス 63" d="M1211.85,557.459H1210.3l-5.739-5.388v5.388H1203.3V550.9h1.552l5.739,5.388V550.9h1.259Z" transform="translate(-819.306 -84.472)" fill="#2568a9"/>
    <path id="パス_64" data-name="パス 64" d="M307.3,459.677a3.394,3.394,0,0,1-1.9-.586L280.005,440.7V456.69a2.762,2.762,0,1,1-5.505,0v-21.9a2.851,2.851,0,0,1,1.523-2.665,2.974,2.974,0,0,1,3.1.264l25.212,18.389V434.787a3.046,3.046,0,0,1,6.091,0v21.9a3.01,3.01,0,0,1-1.7,2.665A3.194,3.194,0,0,1,307.3,459.677Z" transform="translate(-161.779 -0.141)" fill="#2568a9"/>
    <path id="パス_65" data-name="パス 65" d="M576.99,459.73a3.3,3.3,0,0,1-1.991-.644l-29.516-21.9a2.864,2.864,0,0,1-.527-4.187,3.376,3.376,0,0,1,4.509-.469l29.516,21.9a2.864,2.864,0,0,1,.527,4.187A3.354,3.354,0,0,1,576.99,459.73Z" transform="translate(-352.781 -0.194)" fill="#2568a9"/>
    <path id="パス_66" data-name="パス 66" d="M547.422,459.659a3.282,3.282,0,0,1-2.518-1.142,2.82,2.82,0,0,1,.527-4.187l29.516-21.9a3.379,3.379,0,0,1,4.509.469,2.82,2.82,0,0,1-.527,4.187l-29.516,21.932A3.3,3.3,0,0,1,547.422,459.659Z" transform="translate(-352.729 -0.124)" fill="#2568a9"/>
    <path id="パス_67" data-name="パス 67" d="M712.989,437.932H682.711a3.024,3.024,0,0,1,0-6.032h30.278a3.024,3.024,0,0,1,0,6.032Z" transform="translate(-448.804 -0.212)" fill="#2568a9"/>
    <path id="パス_68" data-name="パス 68" d="M733.916,459.777a2.916,2.916,0,0,1-3.016-2.987v-21.9a3.016,3.016,0,0,1,6.032,0v21.9A2.9,2.9,0,0,1,733.916,459.777Z" transform="translate(-484.863 -0.212)" fill="#2568a9"/>
    <path id="パス_69" data-name="パス 69" d="M1019.354,459.877a3.372,3.372,0,0,1-1.874-.586L992.473,440.9V456.89a2.987,2.987,0,1,1-5.974,0v-21.9a3.135,3.135,0,0,1,4.949-2.4l24.978,18.389V434.987a2.987,2.987,0,1,1,5.974,0v21.9a3.036,3.036,0,0,1-1.669,2.665A2.8,2.8,0,0,1,1019.354,459.877Z" transform="translate(-665.989 -0.283)" fill="#2568a9"/>
    <path id="パス_70" data-name="パス 70" d="M1154.63,438.332H1124.47a3.02,3.02,0,0,1,0-6.032h30.161a3.02,3.02,0,0,1,0,6.032Z" transform="translate(-761.529 -0.495)" fill="#2568a9"/>
    <path id="パス_71" data-name="パス 71" d="M1154.672,486.149h-29.809a3.147,3.147,0,0,1-3.162-2.928V472.387a3.176,3.176,0,0,1,3.162-2.987h26.881a2.987,2.987,0,0,1,0,5.974h-24.187v4.861h27.115a2.968,2.968,0,0,1,2.928,2.987A2.937,2.937,0,0,1,1154.672,486.149Z" transform="translate(-761.6 -26.778)" fill="#2568a9"/>
    <path id="パス_72" data-name="パス 72" d="M878.859,459.947H859.5c-4.539,0-8.4-3.6-8.4-7.848V439.977c0-4.246,3.865-7.877,8.4-7.877h19.355a8.052,8.052,0,0,1,8.14,7.877V452.1A8.009,8.009,0,0,1,878.859,459.947ZM859.5,437.634c-1.7,0-2.9.937-2.9,2.313V452.07c0,1.376,1.171,2.284,2.9,2.284h19.355c1.7,0,3.162-.908,3.162-2.284V439.948c0-1.376-1.435-2.313-3.162-2.313Z" transform="translate(-570.014 -0.354)" fill="#2568a9"/>
    <path id="パス_73" data-name="パス 73" d="M442.46,437.6l-30.19.146a3.005,3.005,0,0,1-.029-6l30.19-.146a3.005,3.005,0,0,1,.029,6Z" transform="translate(-257.289)" fill="#2568a9"/>
    <path id="パス_74" data-name="パス 74" d="M442.7,485.754l-29.78.117a3.178,3.178,0,0,1-3.192-2.957l-.029-10.952a3.226,3.226,0,0,1,3.162-3.045l26.852-.117a3,3,0,0,1,.029,6l-24.187.117.029,4.919,27.086-.117a3.018,3.018,0,0,1,.029,6.032Z" transform="translate(-257.501 -26.354)" fill="#2568a9"/>
    <path id="パス_75" data-name="パス 75" d="M134.392,436.916v23.4H97.116v-23.4h37.276m3.016-3.016H94.1v29.429h43.308Z" transform="translate(-34.015 -1.627)" fill="#00406d"/>
    <path id="パス_76" data-name="パス 76" d="M141.676,444.2v23.4H104.4V444.2h37.276" transform="translate(-41.299 -8.91)" fill="#e4e14c"/>
    <path id="パス_77" data-name="パス 77" d="M86.263,473.087v23.4H49.016v-23.4H86.263m3.016-2.987H46v29.429H89.279Z" transform="translate(0 -27.332)" fill="#00406d"/>
    <path id="パス_78" data-name="パス 78" d="M93.547,480.3v23.426H56.3V480.3H93.547" transform="translate(-7.284 -34.545)" fill="#2568a9"/>
  </g>
</svg>
