<svg id="グループ_86" data-name="グループ 86" xmlns="http://www.w3.org/2000/svg" width="350" height="41.622" viewBox="0 0 350 41.622">
  <path id="パス_1" data-name="パス 1" d="M242.059,123.166h-3.6v5.591H237.2v-5.591h-3.6V122.2h8.459v.966Z" transform="translate(-166.337 -87.369)" fill="#fff"/>
  <path id="パス_2" data-name="パス 2" d="M273.189,124.983a2.981,2.981,0,0,1-1.522,2.605,5.861,5.861,0,0,1-3.308.878,6.029,6.029,0,0,1-3.337-.878,2.981,2.981,0,0,1-1.522-2.605,3.082,3.082,0,0,1,1.551-2.605,6.668,6.668,0,0,1,6.615,0A3.079,3.079,0,0,1,273.189,124.983Zm-1.317,0a2.21,2.21,0,0,0-1.112-1.873,4.364,4.364,0,0,0-2.4-.615,4.232,4.232,0,0,0-2.547.7,2.116,2.116,0,0,0-.029,3.571,4.264,4.264,0,0,0,2.576.673,4.327,4.327,0,0,0,2.576-.7A2.069,2.069,0,0,0,271.871,124.983Z" transform="translate(-187.505 -86.874)" fill="#fff"/>
  <path id="パス_3" data-name="パス 3" d="M335.462,128.757H334.2V123.4h-.029l-3.922,4.273-3.864-4.273h-.029v5.356H325.1V122.2h1.551l3.6,3.952,3.63-3.952h1.551v6.557Z" transform="translate(-231.115 -87.369)" fill="#fff"/>
  <path id="パス_4" data-name="パス 4" d="M374.471,128.757H373.1l-.878-1.464h-5.064l-.878,1.464H364.9l3.981-6.557h1.581Zm-2.839-2.429-1.932-3.19-1.932,3.19Z" transform="translate(-259.29 -87.369)" fill="#fff"/>
  <path id="パス_5" data-name="パス 5" d="M410.852,128.757h-1.61l-3.6-3.454-2.283,1.464v1.99H402.1V122.2h1.259v3.4l5.269-3.4h1.815l-3.864,2.488Z" transform="translate(-285.625 -87.369)" fill="#fff"/>
  <path id="パス_6" data-name="パス 6" d="M444.2,128.757h-7.9V122.2h7.61v.966h-6.352v1.7h4.42v.966h-4.42v1.932H444.2Z" transform="translate(-309.835 -87.369)" fill="#fff"/>
  <path id="パス_7" data-name="パス 7" d="M496.813,128.757h-1.376l-.878-1.464H489.5l-.878,1.464H487.3l3.981-6.557h1.581Zm-2.839-2.429-1.932-3.19-1.932,3.19Z" transform="translate(-345.941 -87.369)" fill="#fff"/>
  <path id="パス_8" data-name="パス 8" d="M551.971,122.2a2.828,2.828,0,0,1,1.844.556,1.806,1.806,0,0,1,.673,1.493,1.756,1.756,0,0,1-.7,1.493,3.358,3.358,0,0,1-2.049.527h-4.478v2.488H546V122.2Zm-.234,3.073c.966,0,1.434-.351,1.434-1.024,0-.732-.5-1.083-1.522-1.083h-4.391v2.107Z" transform="translate(-387.496 -87.369)" fill="#fff"/>
  <path id="パス_9" data-name="パス 9" d="M587.774,128.757H579.9V122.2h7.581v.966h-6.352v1.7h4.42v.966h-4.42v1.932h6.644Z" transform="translate(-411.495 -87.369)" fill="#fff"/>
  <path id="パス_10" data-name="パス 10" d="M621.676,128.757h-1.464l-2.049-2.488h-3.805v2.488H613.1V122.2h5.942a2.859,2.859,0,0,1,1.873.556,1.826,1.826,0,0,1,.673,1.522,1.725,1.725,0,0,1-.556,1.346,2.373,2.373,0,0,1-1.405.585Zm-2.781-3.483c.966,0,1.434-.351,1.434-1.024,0-.732-.527-1.083-1.551-1.083h-4.391v2.107Z" transform="translate(-434.999 -87.369)" fill="#fff"/>
  <path id="パス_11" data-name="パス 11" d="M653.305,123.327a8.287,8.287,0,0,0-3.425-.732,5.4,5.4,0,0,0-1.756.234c-.41.146-.615.381-.615.644,0,.293.2.5.644.644a7.013,7.013,0,0,0,1.522.2c1.054.059,1.727.117,2.049.146a5.008,5.008,0,0,1,2.078.615,1.424,1.424,0,0,1,.673,1.259,1.756,1.756,0,0,1-1.054,1.61,6.567,6.567,0,0,1-3.044.556A7.783,7.783,0,0,1,645.9,127.4l.673-.79a8.132,8.132,0,0,0,3.805.937,5.45,5.45,0,0,0,2.049-.322c.468-.2.7-.5.7-.849,0-.41-.293-.7-.907-.82-.322-.059-1.171-.146-2.576-.234a7.646,7.646,0,0,1-2.605-.439,1.316,1.316,0,0,1-.878-1.288,1.608,1.608,0,0,1,1-1.464,6.158,6.158,0,0,1,2.81-.527,7.9,7.9,0,0,1,4.069.966Z" transform="translate(-458.219 -86.945)" fill="#fff"/>
  <path id="パス_12" data-name="パス 12" d="M689.589,124.983a2.981,2.981,0,0,1-1.522,2.605,5.861,5.861,0,0,1-3.308.878,6.029,6.029,0,0,1-3.337-.878,2.981,2.981,0,0,1-1.522-2.605,3.082,3.082,0,0,1,1.551-2.605,6.668,6.668,0,0,1,6.615,0A3.015,3.015,0,0,1,689.589,124.983Zm-1.288,0a2.21,2.21,0,0,0-1.112-1.873,4.364,4.364,0,0,0-2.4-.615,4.232,4.232,0,0,0-2.547.7,2.116,2.116,0,0,0-.029,3.571,4.264,4.264,0,0,0,2.576.673,4.327,4.327,0,0,0,2.576-.7A2.069,2.069,0,0,0,688.3,124.983Z" transform="translate(-482.29 -86.874)" fill="#fff"/>
  <path id="パス_13" data-name="パス 13" d="M728.847,128.757H727.3l-5.737-5.386v5.386H720.3V122.2h1.551l5.737,5.386V122.2h1.259v6.557Z" transform="translate(-510.89 -87.369)" fill="#fff"/>
  <path id="パス_14" data-name="パス 14" d="M797.61,123.166h-6.352v1.7h4.42v.966h-4.42v2.927H790V122.2h7.581l.029.966Z" transform="translate(-560.231 -87.369)" fill="#fff"/>
  <path id="パス_15" data-name="パス 15" d="M826.888,124.983a2.981,2.981,0,0,1-1.522,2.605,5.861,5.861,0,0,1-3.308.878,6.029,6.029,0,0,1-3.337-.878,2.981,2.981,0,0,1-1.522-2.605,3.082,3.082,0,0,1,1.551-2.605,6.668,6.668,0,0,1,6.615,0A3.015,3.015,0,0,1,826.888,124.983Zm-1.288,0a2.21,2.21,0,0,0-1.112-1.873,4.364,4.364,0,0,0-2.4-.615,4.232,4.232,0,0,0-2.547.7,2.116,2.116,0,0,0-.029,3.571,4.264,4.264,0,0,0,2.576.673,4.327,4.327,0,0,0,2.576-.7A2.069,2.069,0,0,0,825.6,124.983Z" transform="translate(-579.49 -86.874)" fill="#fff"/>
  <path id="パス_16" data-name="パス 16" d="M861.705,123.327a8.287,8.287,0,0,0-3.425-.732,5.4,5.4,0,0,0-1.756.234c-.41.146-.615.381-.615.644,0,.293.2.5.644.644a7.014,7.014,0,0,0,1.522.2c1.054.059,1.727.117,2.049.146a5.008,5.008,0,0,1,2.078.615,1.424,1.424,0,0,1,.673,1.259,1.755,1.755,0,0,1-1.054,1.61,6.567,6.567,0,0,1-3.044.556A7.783,7.783,0,0,1,854.3,127.4l.673-.79a8.133,8.133,0,0,0,3.805.937,5.45,5.45,0,0,0,2.049-.322c.468-.2.7-.5.7-.849,0-.41-.293-.7-.907-.82-.322-.059-1.171-.146-2.576-.234a7.647,7.647,0,0,1-2.605-.439,1.316,1.316,0,0,1-.878-1.288,1.608,1.608,0,0,1,1-1.464,6.158,6.158,0,0,1,2.81-.527,7.9,7.9,0,0,1,4.069.966Z" transform="translate(-605.753 -86.945)" fill="#fff"/>
  <path id="パス_17" data-name="パス 17" d="M892.959,123.166h-3.6v5.591H888.1v-5.591h-3.6V122.2h8.459v.966Z" transform="translate(-627.132 -87.369)" fill="#fff"/>
  <path id="パス_18" data-name="パス 18" d="M925.874,128.757H918V122.2h7.581v.966h-6.352v1.7h4.42v.966h-4.42v1.932h6.644v1Z" transform="translate(-650.847 -87.369)" fill="#fff"/>
  <path id="パス_19" data-name="パス 19" d="M959.847,128.757h-1.464l-2.049-2.488h-3.805v2.488H951.3V122.2h5.942a2.859,2.859,0,0,1,1.873.556,1.911,1.911,0,0,1,.673,1.522,1.725,1.725,0,0,1-.556,1.346,2.373,2.373,0,0,1-1.4.585Zm-2.81-3.483c.966,0,1.434-.351,1.434-1.024,0-.732-.527-1.083-1.551-1.083h-4.391v2.107Z" transform="translate(-674.423 -87.369)" fill="#fff"/>
  <path id="パス_20" data-name="パス 20" d="M1016.947,128.757h-1.259V125.83h-6.03v2.927H1008.4V122.2h1.259v2.664h6.03V122.2h1.259Z" transform="translate(-714.951 -87.369)" fill="#fff"/>
  <path id="パス_21" data-name="パス 21" d="M1054.518,126.649a1.922,1.922,0,0,1-1.142,1.668,6.333,6.333,0,0,1-3.1.673,6.455,6.455,0,0,1-3.132-.673,1.922,1.922,0,0,1-1.142-1.668V122.2h1.259v4.186a1.264,1.264,0,0,0,.761,1.171,6.4,6.4,0,0,0,4.508,0,1.294,1.294,0,0,0,.761-1.171V122.2h1.259l-.029,4.449Z" transform="translate(-741.545 -87.369)" fill="#fff"/>
  <path id="パス_22" data-name="パス 22" d="M1093.791,128.757h-1.259V123.4h-.029l-3.922,4.273-3.893-4.273h-.029v5.356H1083.4V122.2h1.551l3.6,3.952,3.63-3.952h1.551v6.557Z" transform="translate(-767.998 -87.369)" fill="#fff"/>
  <path id="パス_23" data-name="パス 23" d="M1132.871,128.757H1131.5l-.878-1.464h-5.064l-.878,1.464H1123.3l3.981-6.557h1.581Zm-2.839-2.429-1.932-3.19-1.932,3.19Z" transform="translate(-796.219 -87.369)" fill="#fff"/>
  <path id="パス_24" data-name="パス 24" d="M1169.147,128.757H1167.6l-5.737-5.386v5.386H1160.6V122.2h1.551l5.737,5.386V122.2h1.259Z" transform="translate(-822.601 -87.369)" fill="#fff"/>
  <path id="パス_25" data-name="パス 25" d="M264.583,30.966a3.392,3.392,0,0,1-1.9-.585L237.3,12V27.98a2.761,2.761,0,1,1-5.5,0V6.086a2.85,2.85,0,0,1,1.522-2.664,2.973,2.973,0,0,1,3.1.263l25.2,18.382V6.086a3.045,3.045,0,0,1,6.088,0V27.98a3.008,3.008,0,0,1-1.7,2.664A3.193,3.193,0,0,1,264.583,30.966Z" transform="translate(-165.076 -3.041)" fill="#fff"/>
  <path id="パス_26" data-name="パス 26" d="M534.277,31.018a3.3,3.3,0,0,1-1.99-.644L502.782,8.48a2.863,2.863,0,0,1-.527-4.186,3.375,3.375,0,0,1,4.508-.468l29.5,21.894a2.863,2.863,0,0,1,.527,4.186A3.353,3.353,0,0,1,534.277,31.018Z" transform="translate(-356.074 -3.094)" fill="#fff"/>
  <path id="パス_27" data-name="パス 27" d="M504.721,30.948a3.281,3.281,0,0,1-2.517-1.142,2.819,2.819,0,0,1,.527-4.186l29.5-21.894a3.378,3.378,0,0,1,4.508.468,2.819,2.819,0,0,1-.527,4.186L506.711,30.3A3.3,3.3,0,0,1,504.721,30.948Z" transform="translate(-356.022 -3.024)" fill="#fff"/>
  <path id="パス_28" data-name="パス 28" d="M670.276,9.23H640.01a2.916,2.916,0,0,1-2.81-3.015A2.935,2.935,0,0,1,640.01,3.2h30.266a2.916,2.916,0,0,1,2.81,3.015A2.935,2.935,0,0,1,670.276,9.23Z" transform="translate(-452.095 -3.112)" fill="#fff"/>
  <path id="パス_29" data-name="パス 29" d="M691.215,31.066A2.915,2.915,0,0,1,688.2,28.08V6.186a3.015,3.015,0,0,1,6.03,0V28.08A2.9,2.9,0,0,1,691.215,31.066Z" transform="translate(-488.162 -3.112)" fill="#fff"/>
  <path id="パス_30" data-name="パス 30" d="M976.641,31.166a3.37,3.37,0,0,1-1.873-.585l-25-18.382V28.18a2.986,2.986,0,0,1-5.971,0V6.286a3.134,3.134,0,0,1,4.947-2.4l24.968,18.382V6.286a2.986,2.986,0,1,1,5.971,0V28.18a3.034,3.034,0,0,1-1.668,2.664A2.8,2.8,0,0,1,976.641,31.166Z" transform="translate(-669.259 -3.183)" fill="#fff"/>
  <path id="パス_31" data-name="パス 31" d="M1111.917,9.63h-30.149a2.945,2.945,0,0,1-2.869-3.015,2.945,2.945,0,0,1,2.869-3.015h30.149a2.945,2.945,0,0,1,2.869,3.015A2.945,2.945,0,0,1,1111.917,9.63Z" transform="translate(-764.815 -3.395)" fill="#fff"/>
  <path id="パス_32" data-name="パス 32" d="M1111.958,57.443h-29.8A3.146,3.146,0,0,1,1079,54.516V43.686a3.174,3.174,0,0,1,3.161-2.986h26.87a2.986,2.986,0,0,1,0,5.971h-24.177V51.53h27.1a2.967,2.967,0,0,1,2.927,2.986A2.936,2.936,0,0,1,1111.958,57.443Z" transform="translate(-764.885 -29.675)" fill="#fff"/>
  <path id="パス_33" data-name="パス 33" d="M836.148,31.236H816.8c-4.537,0-8.4-3.6-8.4-7.844V11.274c0-4.244,3.864-7.874,8.4-7.874h19.348a8.049,8.049,0,0,1,8.137,7.874V23.392A8.006,8.006,0,0,1,836.148,31.236ZM816.8,8.932c-1.7,0-2.9.937-2.9,2.312V23.362c0,1.376,1.171,2.283,2.9,2.283h19.348c1.7,0,3.161-.907,3.161-2.283V11.244c0-1.376-1.434-2.312-3.161-2.312H816.8Z" transform="translate(-573.303 -3.254)" fill="#fff"/>
  <path id="パス_34" data-name="パス 34" d="M399.746,8.9l-30.178.146A2.937,2.937,0,0,1,366.7,6.061a2.939,2.939,0,0,1,2.839-3.015L399.717,2.9a2.937,2.937,0,0,1,2.869,2.986A2.939,2.939,0,0,1,399.746,8.9Z" transform="translate(-260.584 -2.9)" fill="#fff"/>
  <path id="パス_35" data-name="パス 35" d="M399.988,57.048l-29.768.117a3.176,3.176,0,0,1-3.19-2.956L367,43.261a3.225,3.225,0,0,1,3.161-3.044L397,40.1a3,3,0,0,1,.029,6l-24.177.117.029,4.917,27.075-.117a3.017,3.017,0,0,1,.029,6.03Z" transform="translate(-260.796 -29.251)" fill="#fff"/>
  <path id="前面オブジェクトで型抜き_1" data-name="前面オブジェクトで型抜き 1" d="M43.262,39.924H0V10.572H14.079V0H57.37V29.352H43.262V39.924ZM3.015,13.551V36.916H40.247V13.551H3.015ZM17.094,3.008v7.564H43.262V26.343H54.355V3.008Z" transform="translate(0 0.673)" fill="#fff"/>
</svg>
