<svg xmlns="http://www.w3.org/2000/svg" width="560" height="262" viewBox="0 0 560 262">
  <g id="wssロゴ" transform="translate(-31.1 -228)">
    <path id="パス_79" data-name="パス 79" d="M71.809,621.5l-7.7,39.319h-8.62l-2.351-14.336c-.6-3.641-1.106-7.7-1.567-12.4h-.092c-.645,4.7-1.2,8.666-1.936,12.445l-2.673,14.289H38.437L31.2,621.5h8.527l2.028,15.349c.6,4.564,1.106,9.45,1.613,13.783h.092c.553-4.517,1.383-9.127,2.12-13.874L48.117,621.5H55.86l2.351,15.58c.691,4.517,1.245,8.758,1.705,13.506h.138c.461-4.748,1.014-9.173,1.659-13.782l2.074-15.258h8.02Z" transform="translate(-0.054 -212.119)" fill="#050000"/>
    <path id="パス_80" data-name="パス 80" d="M163.511,671.618a21.406,21.406,0,0,1-8.481,1.567c-8.066,0-12.63-5.393-12.63-14.335,0-8.2,4.287-15.35,11.938-15.35,6.131,0,10.417,4.564,10.417,14.289a22.719,22.719,0,0,1-.23,3.78H150.052c.184,3.411,2.9,4.978,6.223,4.978a18.419,18.419,0,0,0,6.177-1.106Zm-6.038-16.225c0-2.535-.738-5.762-3.5-5.762-2.72,0-3.78,3.365-3.918,5.762Z" transform="translate(-59.997 -223.978)" fill="#050000"/>
    <path id="パス_81" data-name="パス 81" d="M232.843,633.349a7.54,7.54,0,0,1,6.546-3.6c5.716,0,9.127,6.038,9.127,14.243,0,10.279-4.932,15.534-10.325,15.534-2.489,0-4.794-1.014-6.407-4.195h-.092l-.415,3.6H224.5c.092-2.259.184-5.577.184-8.758V618h8.02v15.349Zm-.138,14.2c0,3.226,1.844,4.84,3.549,4.84,2.673,0,4.195-2.812,4.195-7.882,0-4.471-1.383-7.559-4.195-7.559-1.8,0-3.549,1.8-3.549,4.886Z" transform="translate(-104.254 -210.232)" fill="#050000"/>
    <path id="パス_82" data-name="パス 82" d="M329.368,629.534a12.857,12.857,0,0,0-6.223-1.613c-3.088,0-4.609,1.659-4.609,3.6,0,2.166,1.475,3.273,5.762,5.439,5.624,2.812,7.928,6.684,7.928,11.57,0,7.191-4.886,12.261-13.413,12.261a18.762,18.762,0,0,1-8.712-2.028l1.383-7.513a16.741,16.741,0,0,0,7.652,2.028c3.365,0,5.024-1.613,5.024-3.964,0-2.4-1.613-3.733-5.255-5.531-5.577-2.858-8.435-6.73-8.435-11.385,0-6.684,4.563-11.892,12.722-11.892a15.994,15.994,0,0,1,7.652,1.752Z" transform="translate(-150.397 -211.58)" fill="#050000"/>
    <path id="パス_83" data-name="パス 83" d="M390.781,630.389l7.928-2.489v7.744h5.347V642.1h-5.347v10.786c0,3.365.968,4.564,2.858,4.564a5.519,5.519,0,0,0,2.074-.277l.046,6.914a15.682,15.682,0,0,1-4.932.645c-7.882,0-8.02-7.514-8.02-10.786V642.051H387.6V635.6h3.134v-5.209Z" transform="translate(-192.174 -215.569)" fill="#050000"/>
    <path id="パス_84" data-name="パス 84" d="M478.848,664c0,3.5.138,6.684.23,9.219h-6.914l-.369-3.549h-.138a8.224,8.224,0,0,1-7.145,4.1c-5.208,0-8.113-3.918-8.113-12.169V644.546h8.02V660.31c0,3.872.968,6.085,3.181,6.085,1.659,0,3.227-1.429,3.227-4.333V644.5h8.021Z" transform="translate(-229.261 -224.517)" fill="#050000"/>
    <path id="パス_85" data-name="パス 85" d="M562.985,650.066c0,3.134.092,6.453.184,8.758h-7.006l-.369-3.734h-.138a7.605,7.605,0,0,1-6.73,4.287c-5.9,0-9.726-6.315-9.726-14.75,0-9.726,4.748-15.027,10.095-15.027a6,6,0,0,1,5.578,2.95h.138V617.8h8.021v32.266Zm-8.021-8.159c0-3.964-2.074-5.116-3.457-5.116-2.9,0-4.241,3.549-4.241,7.882,0,4.932,1.751,7.514,4.194,7.514,1.521,0,3.5-1.06,3.5-4.978Z" transform="translate(-273.895 -210.124)" fill="#050000"/>
    <path id="パス_86" data-name="パス 86" d="M646.476,644.7l-5.623,20.374c-2.627,8.8-4.794,13.644-7.559,16.779a13.641,13.641,0,0,1-7.145,4.241l-1.982-7.652c3.319-.783,6.5-4.471,6.5-6.177a3.673,3.673,0,0,0-.323-1.29L622,644.7h8.8l3,14.059c.368,1.613.737,3.457.968,4.978h.138c.277-1.521.553-3.365.83-4.932l2.443-14.1Z" transform="translate(-318.528 -224.625)" fill="#050000"/>
    <path id="パス_87" data-name="パス 87" d="M723.967,629.534a12.856,12.856,0,0,0-6.223-1.613c-3.088,0-4.61,1.659-4.61,3.6,0,2.166,1.475,3.273,5.762,5.439,5.624,2.812,7.928,6.684,7.928,11.57,0,7.191-4.886,12.261-13.413,12.261a18.762,18.762,0,0,1-8.712-2.028l1.383-7.513a16.741,16.741,0,0,0,7.652,2.028c3.365,0,5.024-1.613,5.024-3.964,0-2.4-1.613-3.733-5.255-5.531-5.577-2.858-8.435-6.73-8.435-11.385,0-6.684,4.563-11.892,12.722-11.892a15.993,15.993,0,0,1,7.651,1.752Z" transform="translate(-363.108 -211.58)" fill="#050000"/>
    <path id="パス_88" data-name="パス 88" d="M804.064,665.848a41.291,41.291,0,0,0,.415,6.776h-7.191l-.461-2.765h-.138a7.635,7.635,0,0,1-6.592,3.319c-4.655,0-7.7-3.964-7.7-8.8,0-7.559,6.085-10.832,13.644-10.878,0-2.167-.876-3.78-4.1-3.78a11.512,11.512,0,0,0-6.315,1.936l-1.475-5.808a18.447,18.447,0,0,1,9.4-2.443c8.482,0,10.556,5.992,10.556,12.353v10.094Zm-7.79-6.73c-3.318,0-6.176,1.06-6.176,4.379,0,2.351,1.291,3.365,2.673,3.365,1.659,0,3.457-1.337,3.457-4.01v-3.734Z" transform="translate(-404.993 -223.924)" fill="#050000"/>
    <path id="パス_89" data-name="パス 89" d="M873.021,647.595a7.981,7.981,0,0,1,7.1-4.195c5.669,0,9.541,6.084,9.541,14.658,0,10.463-5.255,15.119-10.279,15.119a6.305,6.305,0,0,1-5.485-2.9h-.138v13.736h-7.974v-30.56c0-3.549-.092-6.73-.185-9.449h6.914l.415,3.6Zm.784,13.552c0,2.9,1.475,5.024,3.5,5.024,2.812,0,4.241-3.319,4.241-7.79,0-4.794-1.475-7.744-4.149-7.744-1.89,0-3.6,1.89-3.6,4.932Z" transform="translate(-449.842 -223.924)" fill="#050000"/>
    <path id="パス_90" data-name="パス 90" d="M958.867,647.595a7.982,7.982,0,0,1,7.1-4.195c5.669,0,9.541,6.084,9.541,14.658,0,10.463-5.255,15.119-10.279,15.119a6.306,6.306,0,0,1-5.485-2.9H959.6v13.736h-8.021v-30.56c0-3.549-.092-6.73-.184-9.449h6.915l.415,3.6Zm.738,13.552c0,2.9,1.475,5.024,3.5,5.024,2.812,0,4.241-3.319,4.241-7.79,0-4.794-1.475-7.744-4.148-7.744-1.89,0-3.6,1.89-3.6,4.932Z" transform="translate(-496.093 -223.924)" fill="#050000"/>
    <path id="パス_91" data-name="パス 91" d="M1058.815,658.2c0,11.155-6.407,15.073-12.03,15.073-7.1,0-11.985-5.485-11.985-14.7,0-9.634,5.208-15.073,12.261-15.073C1054.39,643.5,1058.815,649.584,1058.815,658.2Zm-11.938-8.2c-3,0-3.964,4.379-3.964,8.343,0,4.794,1.245,8.389,3.964,8.389,2.581,0,3.826-3.826,3.826-8.389C1050.7,654.1,1049.642,650,1046.877,650Z" transform="translate(-541.051 -223.978)" fill="#050000"/>
    <path id="パス_92" data-name="パス 92" d="M1136.064,652.1a8.047,8.047,0,0,0-1.981-.184,4.6,4.6,0,0,0-4.656,3.6,8.837,8.837,0,0,0-.323,2.674v14.335h-8.02V653.118c0-3.78-.093-6.684-.185-9.265h6.869l.322,4.794h.185c1.291-3.78,3.964-5.347,6.084-5.347a8.443,8.443,0,0,1,1.705.138Z" transform="translate(-587.464 -223.87)" fill="#050000"/>
    <path id="パス_93" data-name="パス 93" d="M1207.115,658.2c0,11.155-6.407,15.073-12.031,15.073-7.1,0-11.985-5.485-11.985-14.7,0-9.634,5.209-15.073,12.261-15.073C1202.69,643.5,1207.115,649.584,1207.115,658.2Zm-11.938-8.2c-3,0-3.964,4.379-3.964,8.343,0,4.794,1.245,8.389,3.964,8.389,2.581,0,3.826-3.826,3.826-8.389C1199,654.1,1197.9,650,1195.177,650Z" transform="translate(-620.993 -223.978)" fill="#050000"/>
    <g id="グループ_49" data-name="グループ 49" transform="translate(31.1 475.342)">
      <path id="パス_94" data-name="パス 94" d="M43.269,765.746l-2.858,10.786H39.259l-1.337-5.762c-.323-1.429-.553-2.489-.691-3.595h-.046a29.21,29.21,0,0,1-.83,3.549l-1.521,5.808H33.681L31.1,765.746h1.2l1.291,5.623c.323,1.383.6,2.674.784,3.734h.046c.138-1.106.507-2.351.83-3.78l1.429-5.623H37.83l1.291,5.577c.277,1.291.6,2.581.738,3.78H39.9c.184-1.245.507-2.443.83-3.78l1.429-5.577h1.106Z" transform="translate(-31.1 -765.193)" fill="#231815"/>
      <path id="パス_95" data-name="パス 95" d="M69.308,779.552a5.04,5.04,0,0,1-2.351.461c-2.166,0-3.457-1.613-3.457-3.918,0-2.443,1.291-4.195,3.319-4.195,2.3,0,2.858,2.167,2.858,3.549a2.639,2.639,0,0,1-.046.645H64.652c0,2.167,1.2,2.95,2.535,2.95a4.031,4.031,0,0,0,1.936-.415Zm-.691-4.287c0-1.06-.415-2.4-1.89-2.4-1.383,0-1.982,1.337-2.074,2.4Z" transform="translate(-48.565 -768.535)" fill="#231815"/>
      <path id="パス_96" data-name="パス 96" d="M100.639,778.031a11.756,11.756,0,0,0,.092,1.844H99.717l-.092-1.014h-.046a2.575,2.575,0,0,1-2.213,1.153A2.09,2.09,0,0,1,95.2,777.8c0-1.844,1.567-2.858,4.333-2.858,0-.645,0-2.12-1.705-2.12a3.072,3.072,0,0,0-1.8.553l-.277-.83a4.065,4.065,0,0,1,2.259-.645c2.12,0,2.627,1.567,2.627,3.088Zm-1.106-2.167c-1.429,0-3.181.231-3.181,1.844a1.251,1.251,0,0,0,1.291,1.429,1.851,1.851,0,0,0,1.89-1.8Z" transform="translate(-65.653 -768.535)" fill="#231815"/>
      <path id="パス_97" data-name="パス 97" d="M119.557,773.2c-.138,0-.23-.046-.415-.046-1.245,0-1.844,1.245-1.844,2.581v4.195h-1.152v-5.439c0-.83,0-1.567-.046-2.3h1.014l.046,1.475h.046a2.237,2.237,0,0,1,2.028-1.66c.138,0,.231.046.323.046Z" transform="translate(-76.92 -768.589)" fill="#231815"/>
      <path id="パス_98" data-name="パス 98" d="M135.508,779.552a5.04,5.04,0,0,1-2.351.461c-2.166,0-3.457-1.613-3.457-3.918,0-2.443,1.291-4.195,3.319-4.195,2.3,0,2.858,2.167,2.858,3.549a2.638,2.638,0,0,1-.046.645h-5.07c0,2.167,1.2,2.95,2.535,2.95a4.031,4.031,0,0,0,1.936-.415Zm-.738-4.287c0-1.06-.415-2.4-1.89-2.4-1.383,0-1.982,1.337-2.074,2.4Z" transform="translate(-84.251 -768.535)" fill="#231815"/>
      <path id="パス_99" data-name="パス 99" d="M166.785,778.031a11.76,11.76,0,0,0,.092,1.844h-1.06l-.092-1.014h-.046a2.575,2.575,0,0,1-2.213,1.153A2.09,2.09,0,0,1,161.3,777.8c0-1.844,1.567-2.858,4.333-2.858,0-.645,0-2.12-1.705-2.12a3.072,3.072,0,0,0-1.8.553l-.277-.83a4.065,4.065,0,0,1,2.259-.645c2.12,0,2.627,1.567,2.627,3.088v3.043Zm-1.106-2.167c-1.429,0-3.181.231-3.181,1.844a1.251,1.251,0,0,0,1.291,1.429,1.851,1.851,0,0,0,1.89-1.8Z" transform="translate(-101.285 -768.535)" fill="#231815"/>
      <path id="パス_100" data-name="パス 100" d="M196.664,773.383a2.6,2.6,0,0,0-1.429-.461,1.115,1.115,0,0,0-1.245,1.152c0,.646.415.968,1.383,1.383,1.2.507,1.89,1.152,1.89,2.3a2.325,2.325,0,0,1-2.627,2.3,4.145,4.145,0,0,1-1.936-.507l.323-.922a3.7,3.7,0,0,0,1.659.507c1.014,0,1.475-.553,1.475-1.245,0-.737-.415-1.106-1.383-1.521-1.245-.507-1.89-1.244-1.89-2.167A2.248,2.248,0,0,1,195.327,772a3.563,3.563,0,0,1,1.705.461Z" transform="translate(-118.212 -768.589)" fill="#231815"/>
      <path id="パス_101" data-name="パス 101" d="M215.077,779.651a4.328,4.328,0,0,1-2.028.461c-2.12,0-3.549-1.567-3.549-3.964A3.819,3.819,0,0,1,213.326,772a4.241,4.241,0,0,1,1.8.415l-.276.968a2.863,2.863,0,0,0-1.521-.415c-1.706,0-2.627,1.429-2.627,3.088,0,1.89,1.06,3.042,2.581,3.042a4.157,4.157,0,0,0,1.613-.369Z" transform="translate(-127.268 -768.589)" fill="#231815"/>
      <path id="パス_102" data-name="パス 102" d="M235.392,775.939H234.24v-4.564c0-1.244-.415-2.351-1.705-2.351a2.069,2.069,0,0,0-1.982,2.166v4.748H229.4V764.6h1.152v4.794h.046a2.776,2.776,0,0,1,2.3-1.383c.922,0,2.489.6,2.489,3.227Z" transform="translate(-137.995 -764.6)" fill="#231815"/>
      <path id="パス_103" data-name="パス 103" d="M257.268,776.01c0,2.9-1.844,4.1-3.5,4.1-1.89,0-3.365-1.475-3.365-4.01,0-2.627,1.567-4.1,3.5-4.1C255.931,772,257.268,773.613,257.268,776.01Zm-3.411-3.088c-1.613,0-2.259,1.66-2.259,3.135,0,1.705.922,3.088,2.259,3.088s2.3-1.383,2.3-3.135C256.116,774.674,255.47,772.922,253.857,772.922Z" transform="translate(-149.315 -768.589)" fill="#231815"/>
      <path id="パス_104" data-name="パス 104" d="M279.168,776.01c0,2.9-1.844,4.1-3.5,4.1-1.89,0-3.365-1.475-3.365-4.01,0-2.627,1.567-4.1,3.5-4.1C277.785,772,279.168,773.613,279.168,776.01Zm-3.457-3.088c-1.613,0-2.259,1.66-2.259,3.135,0,1.705.922,3.088,2.259,3.088s2.3-1.383,2.3-3.135C278.016,774.674,277.37,772.922,275.711,772.922Z" transform="translate(-161.12 -768.589)" fill="#231815"/>
      <path id="パス_105" data-name="パス 105" d="M296.452,775.939H295.3V764.6h1.152Z" transform="translate(-173.519 -764.6)" fill="#231815"/>
      <path id="パス_106" data-name="パス 106" d="M319.452,773.575a2.686,2.686,0,0,1,2.535-1.475c1.752,0,3.042,1.567,3.042,3.964,0,2.858-1.613,4.148-3.227,4.148a2.555,2.555,0,0,1-2.259-1.244H319.5v4.241h-1.152v-8.436c0-1.014-.046-1.8-.046-2.489h1.014l.138,1.29Zm.046,3.319a2.126,2.126,0,0,0,2.074,2.3c1.475,0,2.259-1.291,2.259-3.134,0-1.613-.784-3.042-2.213-3.042a2.327,2.327,0,0,0-2.12,2.4Z" transform="translate(-185.917 -768.643)" fill="#231815"/>
      <path id="パス_107" data-name="パス 107" d="M344.357,773.2c-.138,0-.231-.046-.415-.046-1.244,0-1.844,1.245-1.844,2.581v4.195h-1.152v-5.439c0-.83,0-1.567-.046-2.3h1.014l.046,1.475h.046a2.237,2.237,0,0,1,2.028-1.66c.138,0,.23.046.323.046Z" transform="translate(-198.1 -768.589)" fill="#231815"/>
      <path id="パス_108" data-name="パス 108" d="M361.368,776.01c0,2.9-1.844,4.1-3.5,4.1-1.89,0-3.365-1.475-3.365-4.01,0-2.627,1.567-4.1,3.5-4.1C360.031,772,361.368,773.613,361.368,776.01Zm-3.411-3.088c-1.613,0-2.259,1.66-2.259,3.135,0,1.705.922,3.088,2.259,3.088s2.3-1.383,2.3-3.135C360.216,774.674,359.57,772.922,357.957,772.922Z" transform="translate(-205.431 -768.589)" fill="#231815"/>
      <path id="パス_109" data-name="パス 109" d="M382.238,772.4l-2.812,7.744h-1.06L375.6,772.4h1.2l1.475,4.517c.23.691.415,1.337.6,1.982h.046c.184-.645.369-1.29.6-1.982l1.475-4.471h1.245Z" transform="translate(-216.805 -768.805)" fill="#231815"/>
      <path id="パス_110" data-name="パス 110" d="M397.537,767.613a.781.781,0,0,1-.738-.83.739.739,0,1,1,1.475,0A.754.754,0,0,1,397.537,767.613Zm.553,9.081h-1.152V768.95h1.152Z" transform="translate(-228.233 -765.355)" fill="#231815"/>
      <path id="パス_111" data-name="パス 111" d="M414.345,774.049c0,.645.046,1.383.046,1.936h-1.014l-.046-1.337h-.046a2.586,2.586,0,0,1-2.443,1.475c-1.705,0-3.042-1.568-3.042-3.918,0-2.628,1.475-4.148,3.227-4.148a2.318,2.318,0,0,1,2.167,1.2h.046V764.6h1.152v9.449Zm-1.152-2.765a2.093,2.093,0,0,0-2.028-2.3c-1.383,0-2.259,1.383-2.259,3.134,0,1.614.737,3.042,2.212,3.042a2.158,2.158,0,0,0,2.028-2.351v-1.521Z" transform="translate(-234.163 -764.6)" fill="#231815"/>
      <path id="パス_112" data-name="パス 112" d="M431.637,767.613a.781.781,0,0,1-.738-.83.739.739,0,1,1,1.475,0A.73.73,0,0,1,431.637,767.613Zm.6,9.081h-1.152V768.95h1.152Z" transform="translate(-246.615 -765.355)" fill="#231815"/>
      <path id="パス_113" data-name="パス 113" d="M448.938,779.982h-1.152v-4.564c0-1.244-.415-2.351-1.752-2.351a2.052,2.052,0,0,0-1.936,2.212v4.748h-1.152v-5.762c0-.784-.046-1.383-.046-1.982h1.014l.046,1.245h.046a2.689,2.689,0,0,1,2.4-1.429c.922,0,2.535.6,2.535,3.227Z" transform="translate(-253.083 -768.643)" fill="#231815"/>
      <path id="パス_114" data-name="パス 114" d="M470.591,772.184c-.046.553-.046,1.2-.046,2.121v4.517c0,1.336-.046,4.425-3.549,4.425a4.677,4.677,0,0,1-2.351-.6l.323-.922a4.106,4.106,0,0,0,2.074.6c1.383,0,2.351-.737,2.351-2.812v-.922h-.046a2.473,2.473,0,0,1-2.3,1.337c-1.8,0-3.042-1.613-3.042-3.826,0-2.674,1.613-4.1,3.227-4.1a2.348,2.348,0,0,1,2.258,1.337h.046l.046-1.153Zm-1.2,3a2.058,2.058,0,0,0-1.982-2.213c-1.291,0-2.213,1.2-2.213,3.088,0,1.659.784,2.95,2.213,2.95a2.065,2.065,0,0,0,1.982-2.258Z" transform="translate(-264.457 -768.589)" fill="#231815"/>
      <path id="パス_115" data-name="パス 115" d="M499.752,773.575a2.687,2.687,0,0,1,2.535-1.475c1.752,0,3.042,1.567,3.042,3.964,0,2.858-1.613,4.148-3.227,4.148a2.555,2.555,0,0,1-2.259-1.244H499.8v4.241h-1.152v-8.436c0-1.014-.046-1.8-.046-2.489h1.014l.138,1.29Zm.092,3.319a2.126,2.126,0,0,0,2.074,2.3c1.475,0,2.259-1.291,2.259-3.134,0-1.613-.784-3.042-2.213-3.042a2.327,2.327,0,0,0-2.12,2.4Z" transform="translate(-283.109 -768.643)" fill="#231815"/>
      <path id="パス_116" data-name="パス 116" d="M524.657,773.2c-.138,0-.231-.046-.415-.046-1.244,0-1.844,1.245-1.844,2.581v4.195h-1.152v-5.439c0-.83,0-1.567-.046-2.3h1.014l.046,1.475h.046a2.237,2.237,0,0,1,2.028-1.66c.139,0,.23.046.323.046Z" transform="translate(-295.292 -768.589)" fill="#231815"/>
      <path id="パス_117" data-name="パス 117" d="M540.185,778.031a11.719,11.719,0,0,0,.092,1.844h-1.06l-.092-1.014h-.046a2.575,2.575,0,0,1-2.212,1.153A2.09,2.09,0,0,1,534.7,777.8c0-1.844,1.567-2.858,4.333-2.858,0-.645,0-2.12-1.705-2.12a3.072,3.072,0,0,0-1.8.553l-.277-.83a4.064,4.064,0,0,1,2.259-.645c2.12,0,2.627,1.567,2.627,3.088v3.043Zm-1.106-2.167c-1.429,0-3.18.231-3.18,1.844a1.251,1.251,0,0,0,1.29,1.429,1.851,1.851,0,0,0,1.89-1.8Z" transform="translate(-302.569 -768.535)" fill="#231815"/>
      <path id="パス_118" data-name="パス 118" d="M560.177,779.651a4.326,4.326,0,0,1-2.028.461c-2.12,0-3.549-1.567-3.549-3.964A3.819,3.819,0,0,1,558.426,772a4.243,4.243,0,0,1,1.8.415l-.276.968a2.865,2.865,0,0,0-1.521-.415c-1.706,0-2.627,1.429-2.627,3.088,0,1.89,1.06,3.042,2.581,3.042a4.155,4.155,0,0,0,1.613-.369Z" transform="translate(-313.296 -768.589)" fill="#231815"/>
      <path id="パス_119" data-name="パス 119" d="M573.852,768.915l1.106-.415v1.8h1.936v.922h-1.936v4.471c0,.968.277,1.521,1.014,1.521a3.655,3.655,0,0,0,.784-.092l.046.922a3.205,3.205,0,0,1-1.106.185c-1.8,0-1.844-1.705-1.844-2.535v-4.425H572.7v-.922h1.152Z" transform="translate(-323.053 -766.702)" fill="#231815"/>
      <path id="パス_120" data-name="パス 120" d="M589.837,767.613a.781.781,0,0,1-.738-.83.739.739,0,1,1,1.475,0A.754.754,0,0,1,589.837,767.613Zm.553,9.081h-1.152V768.95h1.152Z" transform="translate(-331.893 -765.355)" fill="#231815"/>
      <path id="パス_121" data-name="パス 121" d="M605.577,779.651a4.325,4.325,0,0,1-2.028.461c-2.12,0-3.549-1.567-3.549-3.964A3.819,3.819,0,0,1,603.825,772a4.243,4.243,0,0,1,1.8.415l-.277.968a2.864,2.864,0,0,0-1.521-.415c-1.705,0-2.627,1.429-2.627,3.088,0,1.89,1.06,3.042,2.581,3.042a4.153,4.153,0,0,0,1.613-.369Z" transform="translate(-337.769 -768.589)" fill="#231815"/>
      <path id="パス_122" data-name="パス 122" d="M624.185,778.031a11.719,11.719,0,0,0,.092,1.844h-1.06l-.092-1.014h-.046a2.575,2.575,0,0,1-2.212,1.153A2.09,2.09,0,0,1,618.7,777.8c0-1.844,1.567-2.858,4.333-2.858,0-.645,0-2.12-1.705-2.12a3.071,3.071,0,0,0-1.8.553l-.277-.83a4.066,4.066,0,0,1,2.259-.645c2.121,0,2.627,1.567,2.627,3.088v3.043Zm-1.106-2.167c-1.429,0-3.181.231-3.181,1.844a1.251,1.251,0,0,0,1.291,1.429,1.851,1.851,0,0,0,1.89-1.8Z" transform="translate(-347.849 -768.535)" fill="#231815"/>
      <path id="パス_123" data-name="パス 123" d="M640.852,775.939H639.7V764.6h1.152Z" transform="translate(-359.17 -764.6)" fill="#231815"/>
      <path id="パス_124" data-name="パス 124" d="M667.537,772.4l-2.812,7.744h-1.06L660.9,772.4h1.2l1.475,4.517c.231.691.415,1.337.6,1.982h.046c.185-.645.369-1.29.6-1.982l1.475-4.471h1.245Z" transform="translate(-370.598 -768.805)" fill="#231815"/>
      <path id="パス_125" data-name="パス 125" d="M688.168,776.01c0,2.9-1.844,4.1-3.5,4.1-1.89,0-3.365-1.475-3.365-4.01,0-2.627,1.567-4.1,3.5-4.1C686.831,772,688.168,773.613,688.168,776.01Zm-3.411-3.088c-1.613,0-2.259,1.66-2.259,3.135,0,1.705.922,3.088,2.259,3.088s2.3-1.383,2.3-3.135C687.016,774.674,686.37,772.922,684.757,772.922Z" transform="translate(-381.594 -768.589)" fill="#231815"/>
      <path id="パス_126" data-name="パス 126" d="M708.777,779.651a4.328,4.328,0,0,1-2.028.461c-2.12,0-3.549-1.567-3.549-3.964A3.819,3.819,0,0,1,707.026,772a4.242,4.242,0,0,1,1.8.415l-.276.968a2.864,2.864,0,0,0-1.521-.415c-1.705,0-2.627,1.429-2.627,3.088,0,1.89,1.06,3.042,2.581,3.042a4.157,4.157,0,0,0,1.613-.369Z" transform="translate(-393.4 -768.589)" fill="#231815"/>
      <path id="パス_127" data-name="パス 127" d="M727.285,778.031a11.773,11.773,0,0,0,.092,1.844h-1.06l-.092-1.014h-.046a2.574,2.574,0,0,1-2.212,1.153A2.09,2.09,0,0,1,721.8,777.8c0-1.844,1.567-2.858,4.333-2.858,0-.645,0-2.12-1.706-2.12a3.071,3.071,0,0,0-1.8.553l-.277-.83a4.065,4.065,0,0,1,2.259-.645c2.12,0,2.628,1.567,2.628,3.088v3.043Zm-1.107-2.167c-1.429,0-3.18.231-3.18,1.844a1.251,1.251,0,0,0,1.291,1.429,1.851,1.851,0,0,0,1.89-1.8Z" transform="translate(-403.426 -768.535)" fill="#231815"/>
      <path id="パス_128" data-name="パス 128" d="M742.306,768.915l1.106-.415v1.8h1.936v.922h-1.936v4.471c0,.968.277,1.521,1.014,1.521a3.663,3.663,0,0,0,.784-.092l.092.922a3.206,3.206,0,0,1-1.107.185c-1.8,0-1.844-1.705-1.844-2.535v-4.425H741.2v-.922h1.152v-1.429Z" transform="translate(-413.884 -766.702)" fill="#231815"/>
      <path id="パス_129" data-name="パス 129" d="M758.138,767.613a.781.781,0,0,1-.738-.83.739.739,0,1,1,1.475,0A.708.708,0,0,1,758.138,767.613Zm.6,9.081h-1.152V768.95h1.152Z" transform="translate(-422.617 -765.355)" fill="#231815"/>
      <path id="パス_130" data-name="パス 130" d="M775.268,776.01c0,2.9-1.844,4.1-3.5,4.1-1.889,0-3.365-1.475-3.365-4.01,0-2.627,1.567-4.1,3.5-4.1C773.931,772,775.268,773.613,775.268,776.01Zm-3.411-3.088c-1.613,0-2.259,1.66-2.259,3.135,0,1.705.922,3.088,2.259,3.088s2.3-1.383,2.3-3.135C774.116,774.674,773.47,772.922,771.857,772.922Z" transform="translate(-428.546 -768.589)" fill="#231815"/>
      <path id="パス_131" data-name="パス 131" d="M797.338,779.982h-1.152v-4.564c0-1.244-.415-2.351-1.751-2.351a2.052,2.052,0,0,0-1.936,2.212v4.748h-1.152v-5.762c0-.784-.046-1.383-.046-1.982h1.014l.092,1.245h.046a2.688,2.688,0,0,1,2.4-1.429c.922,0,2.489.6,2.489,3.227Z" transform="translate(-440.89 -768.643)" fill="#231815"/>
      <path id="パス_132" data-name="パス 132" d="M817.785,778.031a11.75,11.75,0,0,0,.092,1.844h-1.06l-.092-1.014h-.046a2.574,2.574,0,0,1-2.212,1.153A2.09,2.09,0,0,1,812.3,777.8c0-1.844,1.567-2.858,4.333-2.858,0-.645,0-2.12-1.705-2.12a3.071,3.071,0,0,0-1.8.553l-.277-.83a4.064,4.064,0,0,1,2.258-.645c2.12,0,2.628,1.567,2.628,3.088v3.043Zm-1.152-2.167c-1.383,0-3.18.231-3.18,1.844a1.251,1.251,0,0,0,1.291,1.429,1.851,1.851,0,0,0,1.89-1.8Z" transform="translate(-452.211 -768.535)" fill="#231815"/>
      <path id="パス_133" data-name="パス 133" d="M834.452,775.939H833.3V764.6h1.152Z" transform="translate(-463.531 -764.6)" fill="#231815"/>
      <path id="パス_134" data-name="パス 134" d="M860.639,778.031a11.773,11.773,0,0,0,.092,1.844h-1.014l-.093-1.014h-.046a2.575,2.575,0,0,1-2.212,1.153A2.089,2.089,0,0,1,855.2,777.8c0-1.844,1.567-2.858,4.333-2.858,0-.645,0-2.12-1.706-2.12a3.072,3.072,0,0,0-1.8.553l-.277-.83a4.065,4.065,0,0,1,2.259-.645c2.121,0,2.628,1.567,2.628,3.088Zm-1.106-2.167c-1.383,0-3.181.231-3.181,1.844a1.251,1.251,0,0,0,1.291,1.429,1.851,1.851,0,0,0,1.89-1.8Z" transform="translate(-475.336 -768.535)" fill="#231815"/>
      <path id="パス_135" data-name="パス 135" d="M882.038,779.982h-1.152v-4.564c0-1.244-.415-2.351-1.752-2.351a2.052,2.052,0,0,0-1.936,2.212v4.748h-1.153v-5.762c0-.784-.046-1.383-.046-1.982h1.014l.092,1.245h.046a2.688,2.688,0,0,1,2.4-1.429c.922,0,2.489.6,2.489,3.227Z" transform="translate(-486.549 -768.643)" fill="#231815"/>
      <path id="パス_136" data-name="パス 136" d="M903.745,774.049c0,.645.046,1.383.046,1.936h-1.014l-.046-1.337h-.047a2.585,2.585,0,0,1-2.443,1.475c-1.705,0-3.042-1.568-3.042-3.918,0-2.628,1.475-4.148,3.226-4.148a2.317,2.317,0,0,1,2.166,1.2h.046V764.6h1.152v9.449Zm-1.152-2.765a2.092,2.092,0,0,0-2.028-2.3c-1.383,0-2.259,1.383-2.259,3.134,0,1.614.738,3.042,2.212,3.042a2.158,2.158,0,0,0,2.028-2.351v-1.521Z" transform="translate(-497.977 -764.6)" fill="#231815"/>
      <path id="パス_137" data-name="パス 137" d="M931.252,768.915l1.106-.415v1.8h1.936v.922h-1.936v4.471c0,.968.277,1.521,1.014,1.521a3.663,3.663,0,0,0,.784-.092l.046.922a3.206,3.206,0,0,1-1.106.185c-1.8,0-1.844-1.705-1.844-2.535v-4.425H930.1v-.922h1.152Z" transform="translate(-515.711 -766.702)" fill="#231815"/>
      <path id="パス_138" data-name="パス 138" d="M951.608,779.552a5.043,5.043,0,0,1-2.351.461c-2.166,0-3.457-1.613-3.457-3.918,0-2.443,1.291-4.195,3.319-4.195,2.3,0,2.858,2.167,2.858,3.549a2.622,2.622,0,0,1-.046.645h-5.07c0,2.167,1.2,2.95,2.536,2.95a4.029,4.029,0,0,0,1.936-.415Zm-.738-4.287c0-1.06-.415-2.4-1.89-2.4-1.383,0-1.982,1.337-2.074,2.4Z" transform="translate(-524.175 -768.535)" fill="#231815"/>
      <path id="パス_139" data-name="パス 139" d="M971.677,779.651a4.326,4.326,0,0,1-2.028.461c-2.12,0-3.549-1.567-3.549-3.964A3.82,3.82,0,0,1,969.926,772a4.243,4.243,0,0,1,1.8.415l-.277.968a2.864,2.864,0,0,0-1.521-.415c-1.706,0-2.627,1.429-2.627,3.088,0,1.89,1.06,3.042,2.581,3.042a4.155,4.155,0,0,0,1.613-.369Z" transform="translate(-535.118 -768.589)" fill="#231815"/>
      <path id="パス_140" data-name="パス 140" d="M991.992,775.939H990.84v-4.564c0-1.244-.415-2.351-1.705-2.351a2.069,2.069,0,0,0-1.982,2.166v4.748H986V764.6h1.152v4.794h.046a2.777,2.777,0,0,1,2.3-1.383c.922,0,2.489.6,2.489,3.227Z" transform="translate(-545.845 -764.6)" fill="#231815"/>
      <path id="パス_141" data-name="パス 141" d="M1014.038,779.982h-1.152v-4.564c0-1.244-.415-2.351-1.752-2.351a2.052,2.052,0,0,0-1.936,2.212v4.748h-1.152v-5.762c0-.784-.046-1.383-.046-1.982h1.014l.092,1.245h.046a2.689,2.689,0,0,1,2.4-1.429c.922,0,2.489.6,2.489,3.227Z" transform="translate(-557.704 -768.643)" fill="#231815"/>
      <path id="パス_142" data-name="パス 142" d="M1030.637,767.613a.781.781,0,0,1-.738-.83.739.739,0,1,1,1.475,0A.708.708,0,0,1,1030.637,767.613Zm.6,9.081h-1.153V768.95h1.153Z" transform="translate(-569.51 -765.355)" fill="#231815"/>
      <path id="パス_143" data-name="パス 143" d="M1046.477,779.651a4.327,4.327,0,0,1-2.028.461c-2.12,0-3.55-1.567-3.55-3.964a3.819,3.819,0,0,1,3.827-4.149,4.238,4.238,0,0,1,1.8.415l-.276.968a2.865,2.865,0,0,0-1.521-.415c-1.706,0-2.628,1.429-2.628,3.088,0,1.89,1.06,3.042,2.581,3.042a4.152,4.152,0,0,0,1.613-.369Z" transform="translate(-575.439 -768.589)" fill="#231815"/>
      <path id="パス_144" data-name="パス 144" d="M1064.985,778.031a11.758,11.758,0,0,0,.092,1.844h-1.061l-.092-1.014h-.046a2.575,2.575,0,0,1-2.213,1.153,2.09,2.09,0,0,1-2.166-2.212c0-1.844,1.568-2.858,4.333-2.858,0-.645,0-2.12-1.705-2.12a3.072,3.072,0,0,0-1.8.553l-.277-.83a4.066,4.066,0,0,1,2.258-.645c2.121,0,2.628,1.567,2.628,3.088v3.043Zm-1.107-2.167c-1.383,0-3.18.231-3.18,1.844a1.251,1.251,0,0,0,1.291,1.429,1.851,1.851,0,0,0,1.89-1.8Z" transform="translate(-585.465 -768.535)" fill="#231815"/>
      <path id="パス_145" data-name="パス 145" d="M1081.752,775.939H1080.6V764.6h1.152Z" transform="translate(-596.84 -764.6)" fill="#231815"/>
      <path id="パス_146" data-name="パス 146" d="M1103.052,768.915l1.106-.415v1.8h1.936v.922h-1.936v4.471c0,.968.277,1.521,1.014,1.521a3.653,3.653,0,0,0,.783-.092l.047.922a3.207,3.207,0,0,1-1.106.185c-1.8,0-1.844-1.705-1.844-2.535v-4.425H1101.9v-.922h1.152Z" transform="translate(-608.321 -766.702)" fill="#231815"/>
      <path id="パス_147" data-name="パス 147" d="M1121.957,773.2c-.138,0-.231-.046-.415-.046-1.245,0-1.844,1.245-1.844,2.581v4.195h-1.152v-5.439c0-.83,0-1.567-.046-2.3h1.014l.046,1.475h.047a2.236,2.236,0,0,1,2.028-1.66c.138,0,.23.046.323.046Z" transform="translate(-617.269 -768.589)" fill="#231815"/>
      <path id="パス_148" data-name="パス 148" d="M1137.485,778.031a11.8,11.8,0,0,0,.092,1.844h-1.06l-.092-1.014h-.046a2.574,2.574,0,0,1-2.212,1.153A2.089,2.089,0,0,1,1132,777.8c0-1.844,1.567-2.858,4.332-2.858,0-.645,0-2.12-1.705-2.12a3.071,3.071,0,0,0-1.8.553l-.277-.83a4.066,4.066,0,0,1,2.259-.645c2.12,0,2.628,1.567,2.628,3.088v3.043Zm-1.106-2.167c-1.383,0-3.18.231-3.18,1.844a1.251,1.251,0,0,0,1.291,1.429,1.851,1.851,0,0,0,1.889-1.8Z" transform="translate(-624.547 -768.535)" fill="#231815"/>
      <path id="パス_149" data-name="パス 149" d="M1153.437,767.613a.782.782,0,0,1-.737-.83.739.739,0,1,1,1.475,0A.73.73,0,0,1,1153.437,767.613Zm.6,9.081h-1.153V768.95h1.153Z" transform="translate(-635.706 -765.355)" fill="#231815"/>
      <path id="パス_150" data-name="パス 150" d="M1170.738,779.982h-1.152v-4.564c0-1.244-.415-2.351-1.751-2.351a2.052,2.052,0,0,0-1.936,2.212v4.748h-1.152v-5.762c0-.784-.046-1.383-.046-1.982h1.015l.092,1.245h.046a2.688,2.688,0,0,1,2.4-1.429c.922,0,2.489.6,2.489,3.227Z" transform="translate(-642.174 -768.643)" fill="#231815"/>
      <path id="パス_151" data-name="パス 151" d="M1187.337,767.613a.782.782,0,0,1-.737-.83.739.739,0,1,1,1.475,0A.729.729,0,0,1,1187.337,767.613Zm.553,9.081h-1.152V768.95h1.152Z" transform="translate(-653.979 -765.355)" fill="#231815"/>
      <path id="パス_152" data-name="パス 152" d="M1204.638,779.982h-1.152v-4.564c0-1.244-.415-2.351-1.751-2.351a2.052,2.052,0,0,0-1.936,2.212v4.748h-1.153v-5.762c0-.784-.046-1.383-.046-1.982h1.014l.046,1.245h.046a2.688,2.688,0,0,1,2.4-1.429c.923,0,2.489.6,2.489,3.227v4.655Z" transform="translate(-660.448 -768.643)" fill="#231815"/>
      <path id="パス_153" data-name="パス 153" d="M1226.292,772.184c-.046.553-.046,1.2-.046,2.121v4.517c0,1.336-.046,4.425-3.549,4.425a4.682,4.682,0,0,1-2.352-.6l.323-.922a4.108,4.108,0,0,0,2.074.6c1.383,0,2.35-.737,2.35-2.812v-.922h-.046a2.474,2.474,0,0,1-2.3,1.337c-1.8,0-3.042-1.613-3.042-3.826,0-2.674,1.613-4.1,3.227-4.1a2.347,2.347,0,0,1,2.258,1.337h.046l.046-1.153Zm-1.2,3a2.058,2.058,0,0,0-1.982-2.213c-1.29,0-2.212,1.2-2.212,3.088,0,1.659.783,2.95,2.212,2.95a2.065,2.065,0,0,0,1.982-2.258Z" transform="translate(-671.822 -768.589)" fill="#231815"/>
      <path id="パス_154" data-name="パス 154" d="M1242.5,786.522a.814.814,0,1,1,1.613,0,.811.811,0,0,1-.829.876C1242.777,787.444,1242.5,787.029,1242.5,786.522Z" transform="translate(-684.113 -775.92)" fill="#231815"/>
    </g>
    <g id="グループ_52" data-name="グループ 52" transform="translate(31.122 228)">
      <path id="パス_155" data-name="パス 155" d="M806.99,372.366l-63.841-63.887c-1.8-1.844-3.411-.876-4.379.092l-15.441,15.442c-.738.738-.6,3.042.138,3.78l49.6,49.6,1.152,1.152-42.223,42.223a2.1,2.1,0,0,0-.461,2.4c.369,1.014,1.567,1.2,2.3,1.2l31.113.184c1.936,0,3.964-1.705,4.333-2.074L806.759,385C808.234,383.152,813.166,378.589,806.99,372.366Z" transform="translate(-404.009 -270.82)" fill="#040000"/>
      <path id="パス_156" data-name="パス 156" d="M553.757,282.679,617.6,346.519c1.8,1.844,3.411.876,4.379-.092l15.442-15.442c.738-.737.6-3.042-.138-3.78l-49.551-49.552-1.152-1.152L628.8,234.28a2.1,2.1,0,0,0,.461-2.4c-.369-1.014-1.567-1.2-2.3-1.2l-31.114-.184c-1.936,0-3.964,1.706-4.333,2.074l-37.475,37.475C552.512,271.847,547.58,276.41,553.757,282.679Z" transform="translate(-311.231 -229.348)" fill="#040000"/>
      <path id="パス_157" data-name="パス 157" d="M1140.99,372.42l-63.841-63.841c-1.8-1.844-3.411-.876-4.379.092l-15.441,15.442c-.738.737-.6,3.042.138,3.78l49.6,49.6,1.152,1.152-42.222,42.223a2.1,2.1,0,0,0-.462,2.4c.369,1.014,1.568,1.2,2.3,1.2l31.114.184c1.936,0,3.964-1.706,4.333-2.074l37.475-37.475C1142.234,383.206,1147.166,378.643,1140.99,372.42Z" transform="translate(-584.054 -270.874)" fill="#040000"/>
      <path id="パス_158" data-name="パス 158" d="M887.754,282.679l63.84,63.841c1.8,1.844,3.411.876,4.379-.092l15.442-15.442c.737-.737.6-3.042-.139-3.78l-49.6-49.552-1.152-1.152L962.75,234.28a2.1,2.1,0,0,0,.461-2.4c-.369-1.014-1.568-1.2-2.305-1.2l-31.113-.184c-1.936,0-3.964,1.706-4.333,2.074l-37.475,37.475C886.509,271.847,881.577,276.41,887.754,282.679Z" transform="translate(-491.273 -229.348)" fill="#040000"/>
      <g id="グループ_51" data-name="グループ 51" transform="translate(82.094)">
        <g id="グループ_50" data-name="グループ 50">
          <path id="パス_159" data-name="パス 159" d="M241.308,300.23l15.211-32.911L239.1,229.613c-.323-.645-1.2-1.613-1.936-1.613H211.393c-1.245.092-1.659.415-1.936,1.2a2.628,2.628,0,0,0,.184,2.4Z" transform="translate(-209.249 -228)" fill="#535253"/>
          <path id="パス_160" data-name="パス 160" d="M415.7,229.2c-.323-.784-.691-1.106-1.936-1.2H387.948c-.738,0-1.613.968-1.936,1.613l-45.818,99.2L327.011,300.23,311.8,333.141l21.342,46.233a3.8,3.8,0,0,0,3.5,2.259h7.1a3.8,3.8,0,0,0,3.5-2.259l68.266-147.825A2.527,2.527,0,0,0,415.7,229.2Z" transform="translate(-264.53 -228)" fill="#535253"/>
        </g>
      </g>
      <path id="パス_161" data-name="パス 161" d="M182.316,229.2c-.323-.784-.691-1.106-1.936-1.2H154.613c-.738,0-1.613.968-1.936,1.613l-45.818,99.2-45.818-99.2c-.323-.645-1.2-1.613-1.936-1.613H33.293c-1.245.092-1.659.415-1.936,1.2a2.628,2.628,0,0,0,.184,2.4L99.807,379.42a3.8,3.8,0,0,0,3.5,2.259h7.1a3.8,3.8,0,0,0,3.5-2.259L182.177,231.6A2.761,2.761,0,0,0,182.316,229.2Z" transform="translate(-31.149 -228)" fill="#040000"/>
    </g>
  </g>
</svg>
